<?xml version="1.0" standalone="no"?>
<!DOCTYPE svg PUBLIC "-//W3C//DTD SVG 20010904//EN"
 "http://www.w3.org/TR/2001/REC-SVG-20010904/DTD/svg10.dtd">
<svg version="1.0" xmlns="http://www.w3.org/2000/svg"
 width="500.000000pt" height="500.000000pt" viewBox="0 0 500.000000 500.000000"
 preserveAspectRatio="xMidYMid meet">
<metadata>
Created by potrace 1.14, written by Peter Selinger 2001-2017
</metadata>
<g transform="translate(0.000000,500.000000) scale(0.100000,-0.100000)"
fill="#000000" stroke="none">
<path d="M1915 4742 c-16 -2 -33 -9 -37 -16 -4 -8 -23 -12 -43 -11 -19 1 -35
-3 -35 -8 0 -5 -6 -7 -12 -4 -7 2 -22 0 -33 -6 -11 -6 -29 -12 -39 -14 -11 -2
-28 -11 -38 -20 -10 -9 -18 -12 -18 -8 0 4 -9 0 -20 -10 -11 -10 -20 -15 -20
-10 0 4 -12 -4 -26 -18 -14 -14 -32 -23 -40 -20 -8 3 -14 1 -12 -5 4 -12 -76
-72 -96 -72 -8 0 -18 -5 -22 -12 -5 -7 -3 -8 6 -3 9 5 11 4 6 -4 -4 -6 -12 -8
-18 -5 -11 7 -78 -54 -78 -71 0 -6 -13 -21 -29 -32 -34 -26 -120 -190 -150
-287 -16 -51 -21 -95 -21 -177 0 -94 4 -136 26 -236 3 -18 0 -23 -15 -23 -48
0 -50 -44 -5 -133 24 -49 35 -99 14 -67 -8 12 -10 12 -9 -5 0 -11 4 -38 8 -60
7 -34 9 -36 10 -11 1 25 3 27 17 15 11 -9 14 -22 10 -43 -11 -53 12 -15 28 48
13 47 13 62 3 74 -10 13 -9 15 6 9 10 -4 31 -7 45 -7 22 0 24 -2 12 -11 -12
-8 -11 -9 5 -6 11 2 19 9 18 15 -4 18 15 14 37 -8 11 -11 17 -26 14 -34 -14
-37 161 -46 222 -12 23 13 24 15 6 11 -13 -4 -42 -3 -65 1 -37 6 -39 8 -17 14
21 5 17 8 -25 14 -51 8 -105 33 -105 49 0 5 7 7 14 4 10 -4 13 -1 10 8 -7 16
11 37 39 48 14 5 18 2 16 -11 -6 -34 11 -72 34 -77 41 -10 81 9 93 44 l10 32
30 -22 c36 -27 54 -45 37 -35 -7 4 -13 3 -13 -3 0 -5 -8 -12 -17 -14 -17 -4
-17 -5 0 -6 10 0 27 4 38 9 32 18 23 -9 -11 -28 -36 -20 -50 -47 -20 -37 15 5
18 3 14 -9 -3 -9 -1 -16 5 -16 6 0 11 9 11 19 0 11 5 23 10 26 6 3 10 -3 10
-14 0 -12 -9 -26 -20 -33 -23 -15 -28 -53 -5 -45 23 9 27 -9 11 -48 -10 -24
-21 -35 -36 -35 -12 0 -18 -5 -15 -10 4 -6 10 -8 15 -5 17 10 20 -29 4 -44
-15 -15 -16 -14 -11 1 3 10 -1 24 -9 32 -13 14 -19 13 -49 -4 -20 -11 -37 -20
-40 -20 -3 0 -8 0 -12 0 -5 0 -1 -5 7 -10 13 -8 12 -10 -3 -10 -10 0 -15 -4
-12 -10 3 -5 -1 -10 -9 -10 -8 0 -28 -16 -43 -37 -15 -20 -37 -46 -48 -57 -34
-35 -52 -61 -37 -52 11 7 12 4 3 -12 -6 -12 -16 -24 -23 -28 -7 -4 -8 -3 -4 5
4 6 2 19 -5 27 -10 13 -10 17 0 24 11 6 11 9 0 13 -11 4 -11 6 1 7 8 0 -1 9
-20 20 -19 11 -28 19 -20 20 12 0 11 4 -4 15 -11 8 -16 15 -10 15 5 0 3 4 -4
8 -9 7 -10 15 -3 35 7 17 7 28 0 32 -5 4 -6 11 -3 17 4 7 2 8 -4 4 -7 -4 -12
0 -13 11 0 10 -3 13 -6 6 -2 -7 -9 -13 -15 -13 -6 0 -8 7 -4 15 7 18 -10 20
-18 3 -3 -7 -5 6 -3 29 1 23 -1 39 -5 37 -5 -3 -8 -13 -9 -22 0 -14 -2 -14 -6
-2 -4 8 -13 21 -22 30 -13 13 -14 13 -7 -5 4 -11 19 -105 32 -210 49 -391 74
-466 201 -605 125 -138 175 -203 170 -221 -3 -11 -2 -17 2 -14 11 6 45 -149
38 -169 -3 -8 -2 -18 2 -21 5 -3 19 -24 31 -47 32 -62 90 -115 120 -111 14 1
37 3 53 4 15 0 27 6 27 12 -1 17 -22 42 -43 50 -10 4 -15 11 -12 17 3 5 -1 10
-9 10 -9 0 -16 4 -16 9 0 5 -3 16 -6 25 -8 22 15 20 32 -1 10 -13 13 -14 14
-4 0 11 3 11 17 0 15 -12 16 -12 10 4 -5 12 -1 17 13 17 11 0 20 -4 20 -10 0
-5 5 -10 11 -10 5 0 8 4 5 8 -2 4 4 13 15 20 13 9 19 9 19 1 0 -7 10 -9 25 -5
15 4 25 2 25 -5 0 -6 6 -4 15 4 8 8 28 21 45 29 16 7 30 16 30 20 0 5 8 8 18
8 10 0 23 5 30 12 9 9 12 9 12 -1 0 -7 5 -9 11 -6 6 4 8 10 5 13 -7 6 60 53
71 50 11 -3 93 50 93 61 0 4 12 13 26 20 15 6 36 23 46 37 11 13 24 21 30 18
7 -4 8 -2 4 4 -4 6 7 21 23 33 17 12 28 26 25 30 -3 5 4 14 16 21 11 7 20 16
20 20 0 15 41 49 50 43 6 -4 10 3 10 14 0 11 5 23 11 27 8 4 9 -1 3 -17 -4
-13 -7 -37 -5 -52 1 -16 -2 -26 -7 -23 -5 3 -9 -2 -9 -11 0 -26 93 81 100 114
3 15 13 37 22 48 15 19 16 19 4 -5 -11 -23 -11 -24 5 -11 9 8 29 34 43 59 25
43 26 48 25 227 l0 184 28 6 c15 3 38 18 51 33 l24 27 -26 -22 c-31 -28 -46
-29 -54 -4 -13 40 -7 90 13 126 23 38 27 55 14 55 -5 0 -17 -18 -27 -40 -10
-23 -21 -36 -25 -30 -7 12 7 130 19 163 l9 22 10 -25 c9 -24 10 -24 22 18 9
30 18 42 29 40 24 -5 41 34 22 49 -14 10 -14 13 2 30 9 11 17 23 17 28 0 5 8
17 17 28 17 18 18 17 34 -45 l17 -63 -5 78 c-4 49 -2 77 4 77 6 0 16 13 23 30
10 25 10 34 -4 55 -20 31 -24 31 -66 0 -19 -14 -36 -21 -38 -15 -2 5 3 38 12
73 37 148 9 410 -60 557 -39 83 -82 133 -193 222 -90 73 -173 115 -316 162
-182 60 -263 72 -380 58z m81 -107 c4 -8 14 -15 24 -15 11 0 22 -5 26 -11 4
-7 10 -7 16 -1 12 12 41 4 33 -8 -2 -4 7 -7 20 -7 14 0 28 4 31 9 3 5 13 0 21
-11 8 -12 19 -21 25 -21 5 0 24 -10 41 -22 17 -12 27 -17 23 -10 -4 7 -2 12 3
12 6 0 11 -8 11 -17 0 -15 2 -16 10 -3 5 8 10 12 10 8 0 -3 3 -14 7 -24 5 -13
3 -16 -10 -11 -11 4 -17 1 -17 -8 0 -8 9 -15 21 -15 11 0 18 -4 15 -9 -3 -5 7
-14 23 -21 16 -6 32 -18 35 -25 6 -16 28 -14 50 4 14 12 16 12 11 -1 -4 -11 3
-19 24 -26 22 -8 31 -17 31 -33 0 -14 5 -19 14 -16 10 4 18 -2 22 -16 4 -12
12 -25 18 -29 8 -6 6 -11 -4 -18 -13 -9 -13 -10 0 -10 28 0 43 -42 45 -125 3
-100 -3 -145 -19 -139 -15 6 -9 -63 7 -73 6 -4 8 0 4 10 -3 10 -2 17 3 17 11
0 13 -11 4 -34 -5 -13 -9 -14 -21 -5 -12 11 -13 5 -7 -41 5 -39 4 -51 -5 -46
-6 4 -11 2 -11 -3 0 -6 6 -11 14 -11 9 0 12 -7 9 -20 -4 -14 0 -20 11 -20 9 0
16 -4 16 -10 0 -5 -6 -7 -13 -5 -6 3 -17 -3 -23 -13 -9 -14 -8 -22 3 -37 14
-19 15 -19 8 4 -5 17 -4 22 6 19 14 -5 14 -36 0 -51 -9 -9 -40 33 -44 61 -2
11 -10 27 -19 36 -16 15 -17 14 -14 -11 1 -16 -1 -36 -6 -46 -9 -17 -11 -17
-36 3 -67 51 -85 63 -79 53 10 -15 -73 -26 -106 -14 -23 9 -48 9 -149 -3 -54
-6 -91 -28 -98 -56 -4 -16 -13 -24 -24 -23 -11 0 -15 -4 -12 -13 7 -17 -5 -18
-24 -1 -12 10 -12 9 0 -6 9 -12 10 -21 4 -25 -20 -13 -42 -55 -37 -68 3 -10
11 -10 30 -3 21 8 24 7 16 -3 -12 -17 -15 -58 -3 -58 5 0 11 -8 14 -18 4 -10
13 -19 21 -19 13 0 13 3 0 24 -15 22 -14 25 12 47 29 25 56 19 35 -7 -12 -14
-7 -27 10 -27 5 0 6 5 3 10 -3 6 4 14 17 19 13 6 37 19 53 30 39 27 58 27 50
1 -6 -20 10 -59 29 -72 17 -11 88 -1 97 14 5 7 9 23 9 36 0 24 10 28 28 10 29
-29 -5 -78 -55 -78 -13 0 -23 -5 -23 -11 0 -6 7 -9 15 -5 8 3 15 1 15 -4 0 -6
-10 -11 -22 -11 -17 -1 -19 -2 -6 -6 29 -7 127 26 138 47 9 16 15 18 36 10 39
-15 63 -11 29 5 l-30 14 35 -5 35 -4 -30 14 c-16 9 -23 15 -15 16 13 0 13 1 0
10 -12 7 -11 10 5 16 11 5 20 3 23 -4 6 -18 19 -14 25 8 3 11 13 20 22 20 9 0
13 -4 10 -10 -3 -5 6 -12 20 -16 16 -4 25 -12 23 -23 -1 -9 1 -22 6 -30 6 -8
5 -12 0 -8 -5 3 -25 1 -44 -3 -34 -9 -34 -9 -5 -8 66 1 62 6 63 -98 1 -53 -1
-101 -4 -106 -3 -4 -14 2 -25 14 l-19 23 6 -30 c3 -16 12 -53 20 -82 17 -61
18 -103 3 -103 -6 0 -9 5 -7 12 2 6 -6 22 -18 35 -13 14 -25 34 -27 46 -2 12
-3 0 -1 -28 1 -27 3 -57 3 -65 1 -13 2 -13 11 0 8 13 10 13 10 -1 0 -10 -12
-20 -27 -25 -31 -8 -31 -8 -54 1 -19 7 -59 -42 -62 -74 -1 -12 -6 -17 -15 -13
-12 4 -12 1 -3 -16 15 -29 14 -32 -11 -32 -18 0 -20 -2 -8 -9 8 -6 19 -7 25
-3 5 3 4 -2 -4 -11 -12 -15 -12 -17 3 -11 12 5 16 0 16 -20 0 -14 -4 -26 -9
-26 -6 0 -9 -8 -8 -17 0 -10 -11 -44 -26 -75 -15 -31 -27 -61 -27 -67 0 -5 -4
-20 -9 -33 -5 -13 -8 -26 -7 -30 0 -3 -8 -17 -20 -30 -12 -13 -24 -31 -27 -41
-4 -11 -12 -15 -19 -11 -10 6 -10 5 0 -8 13 -17 6 -52 -9 -42 -5 3 -9 -2 -9
-11 0 -12 -6 -15 -20 -10 -15 5 -18 3 -14 -10 4 -10 -4 -25 -22 -42 -17 -15
-30 -21 -32 -14 -2 6 -8 11 -13 11 -6 0 -7 -4 -4 -10 4 -6 -5 -10 -19 -10 -16
0 -26 -6 -26 -15 0 -8 -4 -15 -10 -15 -5 0 -10 -7 -10 -15 0 -8 -4 -15 -10
-15 -5 0 -11 -8 -11 -17 -1 -17 -2 -17 -6 0 -2 9 -8 17 -13 17 -5 0 -7 -7 -4
-15 8 -20 -6 -19 -23 3 -8 9 -12 12 -9 6 3 -7 -1 -17 -8 -23 -11 -9 -17 -8
-28 6 -11 16 -31 22 -40 13 -2 -1 -31 -3 -66 -5 -57 -2 -62 -1 -57 16 4 11 2
19 -4 19 -6 0 -11 -7 -11 -16 0 -13 -5 -12 -26 5 -28 22 -50 28 -39 11 3 -6
-1 -10 -10 -10 -12 0 -15 6 -10 21 5 14 3 19 -3 15 -15 -9 -2 36 17 58 15 18
15 19 -3 13 -15 -6 -17 -3 -13 13 3 14 1 18 -6 13 -7 -4 -16 -8 -22 -8 -23 -1
-81 -18 -91 -26 -8 -6 -10 5 -9 36 0 25 -1 45 -5 45 -3 0 -11 9 -18 21 -8 12
-9 18 -3 14 6 -3 11 1 11 10 0 11 -5 15 -16 11 -9 -3 -12 -2 -9 4 10 17 -5 90
-18 87 -7 -1 -11 6 -9 15 1 9 -2 19 -8 23 -11 7 -7 -42 4 -53 3 -3 1 -11 -5
-18 -6 -7 -8 -18 -4 -24 5 -8 12 -5 22 7 13 17 13 16 3 -5 -6 -12 -15 -20 -21
-17 -20 13 -8 -13 14 -29 19 -14 20 -15 2 -9 -28 8 -56 34 -49 44 3 5 0 9 -5
9 -6 0 -11 9 -11 20 0 11 -4 20 -10 20 -5 0 -10 7 -10 16 0 8 -4 12 -10 9 -5
-3 -12 7 -16 22 -4 15 -10 33 -14 38 -17 23 -41 115 -38 148 2 35 18 42 18 9
0 -14 2 -14 9 -3 7 11 11 10 20 -6 5 -11 7 -23 3 -27 -3 -4 1 -4 11 0 9 3 14
11 11 18 -3 6 0 4 8 -4 7 -8 23 -14 34 -12 23 3 64 -39 64 -64 0 -8 5 -14 10
-14 6 0 10 -7 10 -15 0 -9 12 -34 27 -58 14 -23 26 -48 26 -54 0 -7 5 -14 11
-14 13 -2 29 -5 36 -8 30 -14 99 -21 105 -11 3 6 -1 10 -9 10 -9 0 -16 5 -16
11 0 5 -4 8 -9 5 -5 -3 -11 3 -14 14 -3 11 -2 22 2 24 10 7 90 8 124 3 15 -2
30 0 33 4 11 18 52 9 68 -16 9 -14 12 -25 6 -25 -5 0 -10 -4 -10 -9 0 -12 105
13 127 30 41 31 83 79 83 94 0 8 3 14 8 13 10 -4 100 62 106 78 3 8 15 14 27
14 18 0 19 -2 9 -15 -9 -10 -9 -15 -1 -15 6 0 11 4 11 9 0 5 9 13 20 16 11 3
20 11 20 17 0 6 -6 6 -15 -2 -12 -10 -15 -10 -15 0 0 6 9 14 20 17 11 3 20 9
20 13 0 5 9 11 19 15 22 7 17 45 -5 45 -8 0 -17 7 -20 15 -3 8 -14 17 -25 20
-10 4 -19 14 -19 23 0 19 -71 87 -114 108 -28 14 -26 10 17 -31 26 -25 47 -48
47 -50 0 -6 -61 -65 -67 -65 -4 0 -15 8 -26 18 -19 17 -20 16 -13 -10 5 -22 3
-26 -9 -21 -9 3 -14 12 -11 19 3 8 1 14 -4 14 -14 0 -12 -24 2 -38 9 -9 9 -12
0 -12 -17 0 -15 -27 3 -34 8 -3 15 -10 15 -15 0 -13 -169 -19 -174 -6 -3 6 -9
4 -15 -5 -5 -8 -8 -17 -5 -21 5 -8 -68 -15 -114 -11 -18 2 -30 8 -27 13 4 5
-2 12 -12 15 -10 3 -25 8 -33 11 -8 4 -21 7 -28 9 -8 1 -16 5 -20 8 -9 9 47 7
66 -3 11 -5 44 -2 87 9 39 9 87 15 108 14 20 -2 37 1 37 5 0 5 11 6 25 3 22
-4 25 -1 25 22 0 15 5 25 13 23 6 -1 10 5 8 13 -2 8 -3 40 -2 70 2 80 -10 116
-39 112 -16 -2 -21 2 -16 13 3 9 2 13 -4 10 -6 -3 -10 -14 -10 -23 0 -14 -2
-15 -9 -3 -6 9 -6 22 1 34 8 16 7 18 -10 13 -15 -5 -22 -1 -27 14 -8 26 -29
27 -22 1 3 -13 0 -18 -8 -15 -7 3 -16 0 -20 -5 -3 -6 -12 -8 -18 -4 -7 3 -4
-2 5 -13 9 -11 19 -41 21 -67 4 -45 17 -79 17 -44 0 9 5 17 11 17 6 0 8 11 4
29 -6 28 -5 28 32 26 21 -2 41 -4 45 -4 6 -1 28 -57 28 -72 0 -5 -7 -6 -15 -3
-9 4 -15 0 -15 -9 0 -8 -9 -17 -21 -20 -14 -4 -22 1 -28 16 l-8 21 -12 -22
c-7 -12 -17 -20 -23 -16 -5 4 -13 3 -17 -2 -13 -19 -78 -37 -126 -35 -51 2
-109 31 -120 60 -6 15 50 138 66 143 12 4 21 48 9 48 -5 0 -3 21 5 46 7 25 11
55 9 67 -3 12 -9 54 -14 94 -5 40 -13 80 -19 90 -17 33 -60 66 -85 66 -15 0
-26 5 -26 12 0 6 -12 18 -27 26 -16 8 -31 18 -35 24 -4 5 -62 10 -133 10 -123
0 -141 5 -114 32 8 8 5 13 -11 18 -19 6 -21 12 -17 41 6 33 -7 57 -16 32 -9
-26 -19 2 -18 49 1 78 8 136 20 166 7 17 7 26 1 22 -16 -10 -12 12 6 29 8 9
12 16 8 16 -4 0 3 9 15 19 13 11 20 25 16 30 -3 6 1 11 10 11 8 0 18 8 22 18
24 69 97 189 93 152 -5 -31 0 -51 11 -45 6 4 8 13 5 20 -3 8 12 28 32 45 29
25 34 33 22 40 -11 7 -10 9 7 7 12 0 19 -5 17 -9 -12 -19 23 -6 36 13 38 55
47 62 79 61 20 0 34 5 38 14 4 10 13 14 28 10 16 -4 29 2 49 24 14 16 26 34
26 40 0 9 45 15 79 11 7 -2 10 2 7 7 -3 5 14 10 41 10 25 1 48 4 51 7 10 9 23
5 28 -10z m-249 -56 c-9 -6 -14 -16 -11 -22 5 -8 2 -7 -7 1 -12 11 -12 14 1
22 8 5 20 10 25 10 6 -1 2 -5 -8 -11z m627 -115 c23 -9 20 -23 -4 -17 -11 3
-20 9 -20 14 0 11 3 11 24 3z m-999 -23 c-3 -6 -11 -11 -16 -11 -5 0 -4 6 3
14 14 16 24 13 13 -3z m-35 -194 c0 -8 -7 -14 -15 -14 -25 0 -17 17 13 26 1 1
2 -5 2 -12z m1306 -174 c-7 -7 -26 7 -26 19 0 6 6 6 15 -2 9 -7 13 -15 11 -17z
m-1401 -54 c-6 -33 -15 -36 -15 -6 0 15 4 27 9 27 6 0 8 -10 6 -21z m1426 -62
c-10 -9 -11 -8 -5 6 3 10 9 15 12 12 3 -3 0 -11 -7 -18z m-31 -1 c0 -3 -4 -8
-10 -11 -5 -3 -10 -1 -10 4 0 6 5 11 10 11 6 0 10 -2 10 -4z m-44 -51 c-7 -19
17 -15 26 5 5 11 7 9 7 -7 1 -14 -5 -23 -14 -23 -8 0 -15 -8 -15 -17 0 -14 -2
-15 -9 -4 -6 9 -11 10 -15 2 -4 -5 -1 -19 6 -30 7 -11 9 -23 5 -27 -12 -12
-19 3 -25 52 -3 34 -2 45 7 40 6 -4 11 -1 11 8 0 9 5 16 11 16 6 0 9 -7 5 -15z
m-272 -149 c17 7 68 -25 60 -37 -7 -12 7 -11 26 1 9 5 19 5 27 -2 17 -14 16
-29 -1 -22 -8 3 -22 1 -32 -4 -13 -7 -8 -10 25 -16 32 -5 41 -11 41 -26 0 -11
6 -20 13 -20 6 0 4 -5 -6 -11 -13 -8 -24 -7 -40 3 -42 28 -164 60 -223 60 -19
0 -34 4 -34 9 0 8 10 11 74 24 11 2 27 0 36 -5 14 -8 16 -5 12 15 -2 14 -10
25 -18 25 -7 0 -16 4 -19 10 -4 7 2 7 19 0 14 -5 32 -7 40 -4z m268 -81 c-5
-29 -14 -32 -33 -7 -13 16 -13 16 5 2 11 -8 17 -10 13 -3 -8 14 2 45 13 38 4
-2 5 -16 2 -30z m348 -3 c0 -5 -10 -17 -21 -28 -12 -10 -34 -41 -50 -69 -32
-55 -37 -54 -14 2 22 52 12 51 -19 -2 -15 -25 -31 -45 -37 -45 -19 0 23 76 62
112 37 35 79 50 79 30z m-339 -45 c-8 -8 -11 -7 -11 4 0 20 13 34 18 19 3 -7
-1 -17 -7 -23z m-345 4 c-3 -5 -14 -7 -25 -4 -10 2 -35 0 -56 -6 -21 -6 -34
-6 -29 -2 19 18 120 29 110 12z m-743 -8 c-7 -2 -19 -2 -25 0 -7 3 -2 5 12 5
14 0 19 -2 13 -5z m982 -23 c3 -5 2 -10 -4 -10 -5 0 -13 5 -16 10 -3 6 -2 10
4 10 5 0 13 -4 16 -10z m102 -12 c-3 -8 -6 -5 -6 6 -1 11 2 17 5 13 3 -3 4
-12 1 -19z m-347 -8 c0 -5 -7 -10 -16 -10 -8 0 -12 5 -9 10 3 6 10 10 16 10 5
0 9 -4 9 -10z m-710 -10 c0 -5 -4 -10 -10 -10 -5 0 -10 5 -10 10 0 6 5 10 10
10 6 0 10 -4 10 -10z m140 -20 c0 -5 -2 -10 -4 -10 -3 0 -8 5 -11 10 -3 6 -1
10 4 10 6 0 11 -4 11 -10z m-388 -41 c-15 -6 -30 -5 -40 1 -13 7 -8 9 23 9 35
0 37 -1 17 -10z m425 -31 c-3 -8 -6 -5 -6 6 -1 11 2 17 5 13 3 -3 4 -12 1 -19z
m-172 -364 c0 -13 -11 -23 -35 -31 -44 -14 -58 -2 -34 29 23 31 69 32 69 2z
m1052 -56 c-3 -8 -6 -5 -6 6 -1 11 2 17 5 13 3 -3 4 -12 1 -19z m-350 -20 c-3
-8 -6 -5 -6 6 -1 11 2 17 5 13 3 -3 4 -12 1 -19z m311 -70 c-2 -13 -7 -29 -11
-35 -5 -7 -4 -13 2 -13 6 0 8 -12 4 -32 -4 -21 -3 -29 5 -25 6 5 6 -1 -1 -17
-7 -14 -15 -20 -18 -14 -4 6 -9 3 -12 -6 -3 -8 -1 -16 5 -18 6 -2 3 -12 -8
-22 -18 -19 -23 -31 -27 -72 -1 -13 -8 -20 -17 -19 -8 1 -22 -4 -31 -12 -15
-12 -17 -11 -21 17 -3 17 -1 33 4 36 14 9 9 24 -8 24 -11 0 -14 5 -10 16 3 9
6 20 6 25 0 18 18 8 24 -13 l6 -23 20 24 c11 13 20 31 20 41 0 9 11 29 24 43
14 15 20 29 15 33 -9 5 -4 57 8 77 9 16 24 6 21 -15z m-1257 -41 c-8 -8 -11
-7 -11 5 0 9 -3 25 -6 35 -5 13 -1 11 11 -5 13 -18 14 -27 6 -35z m1019 41 c0
-14 -15 -16 -27 -3 -10 11 -9 13 7 12 11 -1 20 -5 20 -9z m170 0 c0 -9 4 -8
10 2 8 12 10 11 10 -7 0 -13 -4 -23 -8 -23 -10 0 -43 -73 -45 -100 -1 -11 -8
-20 -15 -20 -15 0 -12 24 10 77 12 30 14 38 16 66 2 19 22 24 22 5z m-290 -10
c0 -5 -4 -6 -10 -3 -5 3 -10 1 -10 -5 0 -7 8 -9 20 -5 11 4 20 2 20 -4 0 -6
-15 -10 -33 -9 -24 1 -33 6 -33 18 0 12 8 18 23 18 13 0 23 -5 23 -10z m-895
-58 c-6 11 -5 12 4 4 7 -6 13 -30 14 -52 1 -23 5 -42 9 -42 9 0 3 -49 -8 -59
-4 -3 -4 7 -2 22 5 25 3 28 -14 24 -14 -4 -18 -1 -14 9 3 8 2 14 -3 14 -10 0
-8 31 4 49 5 10 4 12 -3 7 -8 -5 -12 1 -12 15 0 19 2 20 17 8 15 -12 16 -12 8
1z m817 -64 c-2 -5 -9 -1 -14 8 -5 9 -6 21 -2 28 9 14 25 -22 16 -36z m-462
19 c11 -13 15 -13 22 -3 6 10 13 8 27 -9 18 -22 19 -22 24 -3 6 25 49 27 71 4
9 -8 16 -11 16 -6 0 15 45 30 72 25 19 -4 25 -10 21 -22 -3 -9 2 -6 11 7 20
26 41 29 54 6 8 -14 10 -14 21 0 14 17 51 22 51 7 0 -5 9 -7 20 -4 16 4 20 0
20 -21 0 -28 -9 -33 -27 -15 -8 8 -13 5 -18 -10 -7 -23 -34 -28 -53 -9 -9 9
-12 9 -12 0 0 -6 -10 -17 -22 -23 -27 -15 -218 -24 -218 -11 0 6 -8 8 -19 5
-10 -2 -25 2 -33 11 -9 8 -18 12 -22 9 -5 -5 -36 56 -36 72 0 11 18 5 30 -10z
m881 -88 c-10 -9 -11 -8 -5 6 3 10 9 15 12 12 3 -3 0 -11 -7 -18z m-546 3 c-3
-5 -13 -10 -21 -10 -8 0 -12 5 -9 10 3 6 13 10 21 10 8 0 12 -4 9 -10z m-12
-49 c-18 -21 -45 -18 -36 5 3 8 16 14 29 14 22 0 23 -1 7 -19z m437 -51 c0 -4
-6 -13 -14 -19 -11 -9 -15 -7 -19 8 -3 11 -3 22 0 25 7 6 33 -4 33 -14z m60
-1 c0 -5 -7 -9 -15 -9 -15 0 -20 12 -9 23 8 8 24 -1 24 -14z m-90 -79 c0 -5
-2 -10 -4 -10 -3 0 -8 5 -11 10 -3 6 -1 10 4 10 6 0 11 -4 11 -10z"/>
<path d="M1276 4073 c-6 -14 -5 -15 5 -6 7 7 10 15 7 18 -3 3 -9 -2 -12 -12z"/>
<path d="M2078 3513 c7 -3 16 -2 19 1 4 3 -2 6 -13 5 -11 0 -14 -3 -6 -6z"/>
<path d="M2105 3490 c-3 -5 -13 -6 -23 -3 -15 6 -16 5 -2 -12 14 -17 13 -18
-7 -13 -13 4 -23 2 -23 -3 0 -9 5 -11 33 -13 6 -1 15 -4 18 -9 3 -4 30 -10 60
-12 l54 -5 -40 13 c-22 8 -42 13 -45 11 -3 -1 -11 5 -19 13 -12 13 -11 14 10
9 20 -6 21 -5 6 4 -9 6 -15 15 -12 21 4 5 4 9 1 9 -3 0 -7 -4 -11 -10z"/>
<path d="M2165 3480 c3 -5 25 -10 48 -9 36 1 38 2 17 9 -36 12 -72 12 -65 0z"/>
<path d="M2348 3433 c7 -3 16 -2 19 1 4 3 -2 6 -13 5 -11 0 -14 -3 -6 -6z"/>
<path d="M2243 3423 c15 -2 39 -2 55 0 15 2 2 4 -28 4 -30 0 -43 -2 -27 -4z"/>
<path d="M2510 3390 c0 -5 5 -10 11 -10 5 0 7 5 4 10 -3 6 -8 10 -11 10 -2 0
-4 -4 -4 -10z"/>
<path d="M1920 3330 c0 -5 5 -10 10 -10 6 0 10 5 10 10 0 6 -4 10 -10 10 -5 0
-10 -4 -10 -10z"/>
<path d="M2076 3015 c-3 -8 -1 -15 4 -15 6 0 10 -5 10 -11 0 -5 -4 -8 -9 -4
-5 3 -12 2 -15 -3 -2 -4 4 -8 14 -9 10 -1 20 6 22 15 9 35 -14 58 -26 27z"/>
<path d="M1568 2703 c7 -3 16 -2 19 1 4 3 -2 6 -13 5 -11 0 -14 -3 -6 -6z"/>
<path d="M1468 2683 c7 -3 16 -2 19 1 4 3 -2 6 -13 5 -11 0 -14 -3 -6 -6z"/>
<path d="M1610 2645 c0 -8 6 -15 14 -15 9 0 13 -7 11 -20 -4 -20 9 -28 19 -12
3 5 19 7 35 4 17 -2 29 -8 26 -12 -2 -4 7 -6 22 -4 14 1 30 8 34 15 11 19 2
24 -16 9 -13 -11 -14 -10 -9 3 5 14 -2 16 -46 13 -44 -2 -53 0 -58 16 -5 22
-32 24 -32 3z"/>
<path d="M1783 2602 c-3 -9 -8 -21 -10 -27 -3 -5 4 -1 14 11 17 19 21 20 41 6
18 -12 25 -12 37 -2 20 17 14 22 -35 26 -32 3 -42 0 -47 -14z"/>
<path d="M1935 2610 c3 -5 8 -10 11 -10 2 0 4 5 4 10 0 6 -5 10 -11 10 -5 0
-7 -4 -4 -10z"/>
<path d="M1942 2426 c7 -8 15 -12 17 -11 5 6 -10 25 -20 25 -5 0 -4 -6 3 -14z"/>
<path d="M2316 3735 c-4 -11 2 -15 26 -15 34 0 34 2 1 18 -17 9 -22 9 -27 -3z"/>
<path d="M1509 3103 c-13 -16 -12 -17 4 -4 9 7 17 15 17 17 0 8 -8 3 -21 -13z"/>
<path d="M2882 3278 c-40 -52 -42 -72 -3 -32 24 25 50 74 39 74 -2 0 -18 -19
-36 -42z"/>
<path d="M2800 2620 c0 -6 7 -25 16 -42 11 -22 14 -43 10 -72 -7 -40 -151
-340 -226 -466 -21 -36 -36 -68 -33 -72 2 -5 0 -8 -6 -8 -6 0 -8 -8 -4 -17 3
-10 3 -15 -2 -11 -4 4 -14 0 -21 -10 -9 -13 -9 -19 -1 -24 8 -5 7 -8 -3 -8
-20 0 -47 -43 -31 -48 6 -2 11 -8 11 -14 0 -6 -7 -7 -16 -4 -12 5 -14 1 -9
-15 5 -16 3 -20 -6 -17 -20 7 -54 -63 -37 -74 9 -5 8 -8 -6 -8 -12 0 -16 -5
-12 -15 3 -8 0 -14 -6 -12 -7 1 -13 -2 -13 -8 -2 -12 -27 -68 -35 -75 -12 -11
-89 -161 -135 -260 -21 -47 -68 -146 -103 -220 -178 -374 -327 -724 -316 -741
4 -7 3 -9 -3 -6 -6 4 -13 -1 -16 -11 -3 -9 -30 -84 -60 -167 -30 -82 -58 -160
-62 -172 l-6 -23 1449 0 1449 0 6 48 c23 179 14 281 -35 389 -20 43 -22 67
-23 238 -4 366 -34 533 -133 730 -27 56 -60 95 -156 190 -142 141 -259 231
-365 282 -42 20 -92 46 -111 59 -19 12 -66 32 -103 44 -46 15 -114 52 -206
114 -135 90 -204 128 -285 157 -48 17 -152 132 -232 255 -63 96 -124 152 -124
114z m-93 -862 c-3 -8 -6 -5 -6 6 -1 11 2 17 5 13 3 -3 4 -12 1 -19z m-167 -8
c0 -5 -2 -10 -4 -10 -3 0 -8 5 -11 10 -3 6 -1 10 4 10 6 0 11 -4 11 -10z m615
-860 c3 -5 1 -10 -4 -10 -6 0 -11 5 -11 10 0 6 2 10 4 10 3 0 8 -4 11 -10z"/>
<path d="M1440 2202 c-93 -40 -209 -108 -249 -145 -18 -18 -47 -52 -63 -77
-34 -53 -102 -256 -118 -355 -7 -38 -29 -133 -50 -210 -22 -77 -62 -231 -89
-343 -28 -111 -64 -248 -80 -305 -49 -170 -112 -451 -136 -607 -9 -58 -18
-117 -20 -132 l-4 -28 73 0 74 0 1 58 c2 262 109 613 340 1112 40 85 82 177
94 203 26 60 75 106 92 85 6 -7 21 -19 33 -26 21 -12 22 -11 10 8 -7 11 -20
22 -28 25 -8 3 -26 22 -40 43 -77 115 -97 171 -81 229 7 25 7 41 0 49 -6 7 -7
19 -3 26 13 21 212 287 266 356 27 34 48 62 46 62 -1 0 -32 -13 -68 -28z"/>
<path d="M1892 2050 c-14 -23 0 -27 22 -5 8 9 22 12 32 8 12 -4 15 -3 10 5
-11 19 -50 14 -64 -8z"/>
<path d="M1620 2007 c0 -7 6 -22 14 -32 12 -17 9 -64 -6 -91 -3 -5 -2 -31 2
-59 l7 -50 2 46 c0 25 8 67 17 93 13 36 14 50 5 56 -7 4 -11 11 -10 16 4 21
-2 34 -16 34 -8 0 -15 -6 -15 -13z"/>
<path d="M1850 1990 c-9 -6 -10 -10 -3 -10 6 0 15 5 18 10 8 12 4 12 -15 0z"/>
<path d="M2070 1650 c-14 -11 -20 -20 -15 -19 13 0 50 28 44 33 -2 3 -15 -4
-29 -14z"/>
</g>
</svg>
