<?xml version="1.0" standalone="no"?>
<!DOCTYPE svg PUBLIC "-//W3C//DTD SVG 20010904//EN"
 "http://www.w3.org/TR/2001/REC-SVG-20010904/DTD/svg10.dtd">
<svg version="1.0" xmlns="http://www.w3.org/2000/svg"
 width="500.000000pt" height="500.000000pt" viewBox="0 0 500.000000 500.000000"
 preserveAspectRatio="xMidYMid meet">
<metadata>
Created by potrace 1.11, written by Peter Selinger 2001-2013
</metadata>
<g transform="translate(0.000000,500.000000) scale(0.100000,-0.100000)"
fill="#000000" stroke="none">
<path d="M1915 4743 c-216 -51 -313 -96 -490 -231 -38 -29 -89 -76 -113 -105
-62 -77 -146 -254 -167 -355 -16 -77 -4 -279 21 -364 4 -13 0 -18 -14 -18 -38
0 -47 -26 -29 -84 10 -29 17 -61 17 -72 0 -12 3 -15 8 -7 4 6 8 -19 8 -57 1
-37 8 -92 17 -121 8 -30 23 -119 32 -199 23 -195 24 -202 46 -305 25 -119 74
-216 152 -301 126 -138 179 -206 174 -225 -3 -11 -2 -19 3 -19 4 0 16 -32 25
-71 13 -52 15 -76 7 -93 -8 -18 -7 -27 4 -38 12 -12 13 -20 3 -41 -10 -21 -9
-33 6 -63 10 -22 15 -46 11 -63 -9 -37 -9 -39 -8 -110 2 -81 13 -74 13 8 0 34
9 84 18 112 18 50 18 50 24 20 4 -17 10 -31 14 -30 5 1 10 0 13 -1 3 -1 18 -4
33 -6 22 -4 27 -2 21 8 -6 10 -5 11 7 1 12 -10 18 -10 29 0 8 7 11 8 7 1 -4
-7 4 -15 19 -18 27 -7 49 3 27 11 -10 4 -10 7 0 18 30 35 35 43 29 50 -7 6 -8
10 -11 36 0 5 -7 7 -13 3 -9 -5 -8 -2 1 9 10 13 17 15 27 6 8 -6 12 -15 9 -19
-3 -5 0 -12 6 -16 7 -4 9 -3 6 3 -11 17 16 42 53 48 42 7 52 15 19 15 -23 0
-23 1 6 20 33 22 50 26 40 10 -9 -15 4 -12 21 5 8 8 13 18 12 22 -2 4 11 12
27 17 64 19 84 29 82 38 -1 6 6 12 15 13 10 2 31 13 48 25 16 12 30 19 30 16
0 -3 12 7 28 21 15 14 44 38 64 53 21 15 34 31 30 36 -4 5 2 2 12 -6 12 -9 17
-10 12 -3 -6 12 21 47 107 135 27 29 37 23 16 -11 -8 -12 -9 -24 -2 -35 8 -15
16 -10 55 36 24 29 69 89 100 134 54 79 55 82 61 170 4 49 4 135 0 192 -6 98
-5 102 14 102 28 0 70 35 88 73 9 18 10 23 3 13 -7 -11 -24 -31 -37 -45 -21
-21 -24 -22 -33 -8 -11 20 -4 123 10 140 14 17 19 46 7 47 -5 0 -18 -13 -27
-31 -9 -17 -20 -34 -24 -37 -10 -10 4 137 16 157 9 17 10 15 22 -29 3 -8 13 9
23 37 15 42 21 49 38 45 16 -4 19 -1 14 11 -4 10 0 20 10 26 14 7 13 10 -5 15
-22 7 -31 26 -11 26 5 0 15 13 20 29 19 53 36 45 53 -22 l15 -62 -5 65 c-4 53
-1 72 15 105 26 49 26 67 1 90 -19 17 -21 17 -60 -9 -45 -30 -46 -27 -24 58
42 160 2 449 -83 601 -48 87 -198 214 -328 278 -176 87 -436 145 -540 120z m1
-128 c-4 -12 3 -15 32 -16 30 0 33 -2 17 -9 -14 -6 -15 -9 -4 -9 8 -1 20 4 26
10 7 7 15 6 27 -6 21 -21 42 -10 24 13 -7 10 -1 7 13 -6 16 -14 40 -23 63 -24
24 -1 35 -5 32 -13 -2 -7 0 -17 6 -23 6 -6 6 -12 -1 -16 -6 -4 -11 -2 -11 3 0
6 -8 11 -17 11 -17 -1 -17 -1 0 -11 9 -6 15 -15 11 -20 -3 -6 0 -9 7 -7 8 1
24 -6 37 -17 12 -11 27 -21 32 -21 6 -1 12 -3 15 -4 3 -1 10 -3 17 -4 6 0 13
-7 16 -15 3 -8 0 -11 -7 -7 -6 4 -11 3 -11 -2 0 -5 18 -9 41 -10 24 -1 38 2
34 8 -3 6 1 10 10 10 8 0 18 -7 21 -15 4 -8 10 -12 15 -9 5 3 9 -1 9 -9 0 -8
13 -17 29 -20 26 -6 53 -47 30 -47 -5 0 -9 -15 -9 -32 0 -22 3 -29 9 -20 7 11
10 10 15 -3 9 -24 7 -37 -4 -30 -5 3 -10 1 -10 -4 0 -6 6 -11 13 -11 8 0 7 -4
-3 -10 -9 -6 -10 -10 -3 -10 6 0 18 -2 26 -5 17 -7 19 23 3 45 -5 8 -6 12 -1
7 4 -4 18 0 31 8 17 11 24 12 32 2 17 -22 21 -46 10 -53 -6 -4 -9 -3 -5 2 3 5
-6 14 -19 21 -13 6 -24 8 -24 5 1 -15 40 -53 49 -48 5 3 14 -8 20 -26 14 -39
14 -41 -1 -32 -8 5 -7 0 2 -11 12 -15 12 -17 1 -10 -11 6 -13 3 -9 -13 6 -20
2 -24 -18 -21 -14 2 -22 -26 -12 -38 6 -7 8 -22 5 -33 -3 -11 -1 -18 4 -14 5
3 9 -2 9 -10 0 -8 -4 -17 -9 -20 -4 -3 -6 -17 -3 -32 3 -18 0 -30 -12 -36 -9
-5 -16 -16 -16 -25 0 -9 -6 -21 -14 -27 -16 -13 -31 -80 -16 -71 6 3 10 1 10
-4 0 -6 -8 -11 -17 -11 -13 0 -14 -3 -5 -12 28 -28 9 -29 -20 -1 -43 40 -78
58 -87 44 -8 -13 -61 -15 -122 -6 -94 15 -239 -29 -239 -72 0 -6 -14 -13 -32
-17 -23 -5 -29 -9 -21 -17 11 -11 10 -15 -23 -52 -11 -13 -15 -77 -4 -77 3 0
11 5 17 11 9 9 14 1 22 -29 9 -33 41 -79 41 -58 0 4 14 -1 31 -10 79 -40 130
-50 242 -43 59 3 112 10 117 15 6 6 -20 6 -68 0 -94 -11 -151 -3 -149 22 1 14
9 16 44 13 24 -1 40 -7 37 -12 -6 -10 9 -12 74 -9 34 1 50 8 72 32 22 23 35
29 53 24 14 -3 54 -6 90 -7 l65 -2 -1 -88 c0 -49 -4 -89 -8 -89 -3 0 -12 7
-19 15 -15 18 -35 20 -23 3 8 -12 28 -93 37 -150 3 -16 1 -28 -4 -28 -15 0
-32 40 -27 61 4 14 0 19 -14 19 -10 0 -19 5 -19 10 0 6 -5 10 -11 10 -7 0 -8
-7 -3 -17 4 -10 7 -33 6 -51 -1 -20 2 -31 8 -27 25 16 6 -7 -32 -37 -23 -18
-39 -26 -35 -18 5 8 0 5 -9 -7 -9 -13 -22 -23 -30 -23 -8 0 -11 -9 -8 -25 4
-26 -18 -36 -31 -15 -4 6 -10 8 -14 5 -5 -2 -19 4 -31 15 -13 11 -19 20 -15
20 5 0 -5 10 -21 23 -17 12 -43 34 -60 50 -16 15 -37 30 -46 33 -10 3 -18 10
-18 15 0 5 -4 9 -8 9 -23 0 -4 -34 36 -67 42 -35 44 -37 23 -45 -12 -4 -20
-12 -16 -17 3 -5 1 -12 -5 -16 -5 -3 -10 0 -10 7 0 9 -3 9 -10 -2 -8 -12 -12
-12 -18 -2 -7 10 -11 10 -22 -3 -13 -16 -31 -21 -29 -7 3 16 -2 23 -11 17 -7
-4 -6 -14 1 -28 9 -20 9 -20 -4 -5 -8 11 -15 45 -16 85 -2 80 -7 118 -16 132
-10 17 -64 43 -75 36 -6 -3 -10 -2 -10 3 0 5 -12 22 -26 37 -22 24 -25 33 -17
54 6 18 15 25 28 23 16 -2 17 -1 5 7 -8 6 -19 6 -25 1 -12 -10 -33 -9 -52 3
-6 4 -14 3 -18 -3 -3 -5 -2 -10 2 -10 12 0 11 -84 -1 -92 -6 -4 0 -15 15 -28
23 -20 23 -21 2 -10 -27 13 -29 8 -7 -25 9 -14 13 -25 10 -25 -4 0 1 -14 10
-31 23 -45 11 -96 -24 -111 -52 -20 -130 -16 -168 9 -39 27 -41 36 -14 70 11
14 17 29 14 34 -7 11 31 61 40 52 3 -3 6 9 6 29 0 19 3 37 6 41 9 9 12 111 3
122 -4 6 -8 15 -8 20 -1 14 -11 94 -16 130 -5 30 -47 89 -57 79 -3 -3 -15 7
-27 22 -15 19 -21 22 -21 10 0 -9 -4 -16 -10 -16 -5 0 -10 9 -10 20 0 12 -5
17 -14 14 -7 -3 -20 1 -27 9 -17 17 -119 38 -148 30 -13 -3 -21 -1 -21 6 0 7
-5 9 -12 5 -7 -4 -23 -9 -36 -10 -19 -2 -22 1 -17 14 4 9 8 23 8 30 0 6 4 12
9 12 5 0 6 5 3 11 -4 6 -13 8 -20 6 -18 -7 -51 33 -35 43 9 6 9 9 1 15 -7 3
-9 15 -6 26 4 10 8 30 9 43 1 14 7 31 13 38 15 18 20 36 9 36 -5 0 -13 6 -17
14 -6 9 -9 7 -9 -9 0 -13 -4 -23 -10 -23 -15 0 -12 27 5 44 8 8 12 22 9 30 -3
9 -1 16 5 16 5 0 15 10 22 21 8 15 8 19 0 15 -6 -4 -11 -3 -11 2 0 5 10 14 23
21 12 6 14 9 5 7 -21 -6 -13 20 9 28 13 5 13 9 2 22 -10 12 -10 17 -1 23 7 4
24 23 38 42 15 19 24 26 21 17 -13 -37 38 -1 61 42 12 24 22 38 22 30 0 -9 12
-2 29 18 19 21 40 33 59 35 17 1 28 5 26 9 -2 3 9 9 26 13 16 4 30 11 30 16 0
5 7 9 15 9 9 0 12 6 9 15 -8 19 22 31 39 17 10 -8 13 -6 14 9 1 12 -3 17 -10
13 -8 -5 -7 -2 1 7 11 12 14 12 22 0 7 -13 11 -13 26 0 11 9 15 9 10 2 -8 -14
-1 -15 29 -4 17 7 17 8 -8 15 -16 3 -32 4 -37 1 -16 -10 -11 11 5 25 8 7 21
10 30 7 8 -4 21 1 30 9 9 9 22 14 29 11 8 -3 17 1 20 9 3 8 8 14 12 14 3 0 4
-7 0 -15z m284 -65 c0 -5 -2 -10 -4 -10 -3 0 -8 5 -11 10 -3 6 -1 10 4 10 6 0
11 -4 11 -10z m265 -180 c3 -5 2 -17 -3 -26 -9 -17 -14 -13 -25 19 -7 18 17
25 28 7z m35 -30 c0 -5 -5 -10 -11 -10 -5 0 -7 5 -4 10 3 6 8 10 11 10 2 0 4
-4 4 -10z m-30 -36 c0 -8 -19 -13 -24 -6 -3 5 1 9 9 9 8 0 15 -2 15 -3z m80
-259 c0 -8 -2 -15 -4 -15 -2 0 -6 7 -10 15 -3 8 -1 15 4 15 6 0 10 -7 10 -15z
m-1260 -45 c0 -5 -2 -10 -4 -10 -3 0 -8 5 -11 10 -3 6 -1 10 4 10 6 0 11 -4
11 -10z m14 -166 c3 -8 2 -12 -4 -9 -6 3 -10 10 -10 16 0 14 7 11 14 -7z m26
-58 c0 -3 -4 -8 -10 -11 -5 -3 -10 -1 -10 4 0 6 5 11 10 11 6 0 10 -2 10 -4z
m955 -66 c3 -6 -1 -7 -9 -4 -9 3 -16 1 -16 -5 0 -12 14 -14 47 -5 13 4 20 11
16 17 -4 7 0 8 11 4 10 -4 32 -7 49 -7 30 -1 31 -1 13 -15 -20 -15 -20 -15 0
-17 18 -1 27 -3 49 -8 6 -2 -10 -6 -35 -9 -30 -4 -49 -2 -59 7 -7 7 -21 11
-30 8 -21 -6 -121 20 -101 27 55 19 57 20 65 7z m614 -88 c-13 -15 -27 -31
-32 -37 -11 -14 4 27 16 43 6 8 6 12 -2 12 -6 0 -3 8 7 18 14 15 18 16 25 4 6
-9 1 -23 -14 -40z m-646 11 c-7 -2 -21 -2 -30 0 -10 3 -4 5 12 5 17 0 24 -2
18 -5z m-66 -9 c-3 -3 -12 -4 -19 -1 -8 3 -5 6 6 6 11 1 17 -2 13 -5z m652
-38 c-19 -32 -39 -47 -39 -29 0 10 52 75 56 70 3 -3 -5 -21 -17 -41z m-663
-20 c0 -47 19 -66 65 -66 43 0 69 21 69 56 0 26 12 31 27 12 18 -23 10 -49
-21 -65 -34 -18 -156 -20 -184 -4 -9 6 -12 11 -7 12 6 1 -7 5 -28 8 -39 6 -51
23 -20 30 10 2 31 14 46 27 39 33 53 30 53 -10z m-719 -12 c-1 -45 23 -66 72
-61 36 4 61 28 61 59 0 15 4 17 18 9 21 -13 72 -55 55 -46 -7 3 -13 2 -13 -4
0 -5 -6 -12 -12 -14 -7 -2 -1 -3 15 -1 15 2 27 -1 27 -6 0 -18 -45 -33 -110
-35 -36 -2 -57 -1 -47 2 9 2 17 9 17 14 0 6 -4 8 -9 5 -14 -9 -114 16 -131 32
-13 13 -13 14 3 9 14 -5 17 -1 17 23 0 23 17 46 37 50 0 0 1 -16 0 -36z m788
26 c3 -5 -1 -10 -10 -10 -9 0 -13 5 -10 10 3 6 8 10 10 10 2 0 7 -4 10 -10z
m318 -10 c20 0 20 0 1 -15 -16 -13 -16 -14 -1 -9 9 3 17 2 17 -3 0 -21 -27
-33 -74 -32 -29 1 -39 4 -23 6 34 5 36 23 2 23 -18 0 -23 4 -19 15 5 11 10 13
19 5 9 -8 15 -8 20 0 3 6 11 8 16 5 5 -4 9 2 10 12 0 10 3 13 6 6 2 -7 14 -13
26 -13z m-1023 0 c0 -5 -4 -10 -10 -10 -5 0 -10 5 -10 10 0 6 5 10 10 10 6 0
10 -4 10 -10z m500 -14 c-16 -16 -12 -24 18 -40 19 -11 22 -15 10 -16 -16 0
-23 -11 -19 -33 1 -4 -8 -3 -19 3 -11 6 -20 20 -20 31 0 11 -4 17 -10 14 -5
-3 -10 -1 -10 4 0 17 30 48 46 48 10 0 11 -4 4 -11z m-757 -43 c-7 -2 -21 -2
-30 0 -10 3 -4 5 12 5 17 0 24 -2 18 -5z m-6 -34 c-8 -5 -22 -6 -31 -3 -27 11
-17 21 15 16 24 -4 28 -7 16 -13z m73 -9 c0 -5 -5 -10 -11 -10 -7 0 -1 -8 12
-19 23 -17 84 -37 102 -33 5 2 6 -2 2 -8 -4 -6 5 -10 20 -10 15 0 24 4 20 10
-4 6 7 10 27 10 29 0 31 -2 17 -15 -9 -9 -25 -17 -37 -18 -12 -1 -22 -5 -22
-9 0 -14 22 -8 81 22 l59 30 -6 -28 c-4 -15 -14 -35 -22 -45 -15 -16 -14 -17
2 -11 11 4 21 1 27 -7 5 -8 9 -9 9 -4 0 6 12 11 27 12 25 1 26 0 10 -12 -9 -6
-17 -18 -18 -26 0 -9 -2 -10 -5 -2 -3 7 -14 2 -29 -13 -13 -13 -33 -24 -45
-24 -11 0 -20 -5 -20 -11 0 -6 -6 -9 -13 -6 -8 3 -18 -7 -26 -24 -7 -16 -19
-29 -26 -29 -7 0 -15 -7 -19 -15 -3 -9 -12 -12 -22 -8 -14 5 -16 2 -12 -15 4
-14 2 -20 -4 -16 -6 4 -14 0 -19 -7 -8 -14 -49 -22 -49 -10 0 4 5 12 12 19 9
9 9 15 0 24 -9 9 -12 9 -12 -1 0 -11 -3 -11 -16 0 -15 12 -16 11 -11 -6 4 -11
2 -27 -3 -35 -9 -13 -10 -13 -11 0 0 8 -2 38 -4 67 -3 40 1 57 16 74 25 29 24
36 -4 41 -18 4 -23 0 -23 -15 1 -11 -5 -22 -12 -24 -7 -3 -10 1 -6 11 7 18 -7
21 -23 5 -7 -7 -9 -3 -6 15 3 15 9 29 14 32 5 3 9 10 9 17 0 6 -12 -6 -27 -28
-37 -55 -41 -26 -6 45 31 62 15 62 -17 1 -23 -43 -26 -19 -5 33 8 19 14 41 13
47 -2 6 17 17 42 24 59 16 70 17 70 5z m-154 -87 c-3 -8 -6 -24 -7 -36 0 -21
-1 -21 -9 -2 -15 35 -12 65 6 58 8 -3 13 -12 10 -20z m835 -209 c10 -12 10
-17 0 -23 -6 -4 -11 -13 -9 -18 6 -20 -16 -15 -23 6 -6 15 -4 19 7 14 17 -6
19 8 2 25 -8 8 -8 12 -1 12 6 0 16 -7 24 -16z m-71 -34 c0 -5 -5 -10 -11 -10
-5 0 -7 5 -4 10 3 6 8 10 11 10 2 0 4 -4 4 -10z m220 -100 c0 -5 -2 -10 -4
-10 -3 0 -8 5 -11 10 -3 6 -1 10 4 10 6 0 11 -4 11 -10z m-123 -64 c-1 -6 13
-9 31 -7 19 1 32 -2 32 -9 0 -6 -4 -8 -10 -5 -5 3 -10 2 -10 -2 0 -5 -40 -7
-90 -6 -49 2 -90 -1 -90 -6 0 -4 -20 -7 -45 -6 -45 1 -61 -9 -27 -18 13 -4 12
-5 -5 -6 -12 0 -25 4 -28 10 -4 6 -17 14 -29 19 -18 7 -15 9 19 14 22 4 54 11
70 16 17 5 58 7 92 6 34 -1 60 0 58 4 -2 3 5 6 15 6 10 0 18 -5 17 -10z m498
-6 c-3 -5 -11 -10 -16 -10 -6 0 -7 5 -4 10 3 6 11 10 16 10 6 0 7 -4 4 -10z
m-167 -63 c15 -30 6 -110 -9 -85 -7 10 -9 9 -10 -4 -1 -10 -3 -22 -4 -28 -1
-5 -3 -17 -4 -26 0 -8 -5 -13 -10 -10 -5 3 -9 0 -8 -7 1 -36 -4 -57 -14 -54
-6 1 -16 -15 -23 -36 -6 -21 -21 -49 -34 -62 -14 -14 -19 -26 -12 -30 7 -4 6
-13 -2 -28 -7 -12 -11 -26 -10 -31 2 -5 -4 -4 -12 4 -17 13 -19 9 -17 -25 l2
-20 -17 20 c-16 20 -16 20 -11 -2 3 -13 0 -21 -6 -20 -6 1 -11 -3 -12 -10 0
-19 -15 -28 -15 -9 0 13 -4 15 -19 6 -25 -13 -41 -13 -21 0 13 8 12 10 -2 10
-10 0 -18 -4 -18 -10 0 -5 -8 -10 -17 -10 -17 -1 -17 -1 0 -11 21 -12 23 -31
2 -23 -10 4 -13 0 -10 -15 3 -16 -1 -20 -18 -18 -13 1 -21 -3 -19 -10 1 -7 -2
-13 -7 -13 -12 0 -23 29 -15 41 3 5 -2 16 -10 25 -9 8 -16 22 -16 29 0 8 -5
17 -12 21 -6 4 -8 3 -5 -3 4 -6 0 -13 -8 -17 -10 -3 -15 1 -15 12 -1 16 -1 16
-11 -1 -14 -25 15 -55 36 -37 11 9 15 9 15 1 0 -6 -4 -11 -8 -11 -5 0 -24 -14
-42 -30 -21 -19 -37 -27 -43 -21 -6 6 -19 6 -35 0 -26 -10 -26 -10 -7 10 19
22 14 26 -29 21 -12 -1 -16 3 -11 12 3 7 -2 3 -12 -8 -15 -16 -24 -19 -36 -12
-10 5 -15 13 -12 19 3 5 0 7 -7 4 -7 -3 -20 0 -28 6 -12 9 -13 12 -1 16 11 4
11 7 0 14 -11 6 -10 11 4 27 21 23 22 32 1 32 -9 0 -12 5 -8 11 5 9 -1 10 -20
5 -18 -4 -25 -3 -21 4 9 15 -3 12 -37 -7 -28 -17 -30 -17 -41 2 -17 29 -27 76
-14 68 6 -4 1 8 -12 25 -12 18 -17 31 -11 30 20 -5 23 20 3 25 -15 4 -15 5 3
6 21 1 35 -18 52 -74 8 -29 27 -37 27 -12 1 6 7 10 15 8 8 -2 29 -5 45 -6 17
-1 38 -6 48 -10 10 -4 23 -2 32 5 8 7 26 9 43 5 35 -7 67 20 41 36 -8 5 -9 9
-3 9 5 0 19 -7 30 -15 25 -19 58 -19 74 0 9 10 9 15 1 15 -6 0 -11 -5 -11 -10
0 -6 -15 -4 -36 5 -20 8 -59 16 -86 17 -43 2 -49 5 -54 28 -10 43 -12 46 -13
15 l-1 -30 -15 29 c-17 33 -16 35 15 41 24 5 50 -15 50 -37 0 -10 -3 -9 -10 2
-8 12 -10 11 -10 -7 0 -14 6 -23 15 -23 10 0 15 10 15 29 0 17 5 33 12 37 8 5
9 -5 5 -37 -3 -24 -3 -36 0 -26 2 9 8 17 12 17 5 0 6 10 4 23 -4 19 0 22 29
22 30 0 47 -9 48 -26 0 -10 -49 -28 -52 -19 -2 4 -9 2 -16 -6 -20 -21 66 -19
126 4 55 21 71 34 157 120 47 47 66 61 81 56 14 -4 15 -3 5 4 -15 11 2 27 19
17 5 -3 7 0 4 8 -3 8 1 17 9 20 11 4 13 0 10 -13 -4 -15 -1 -18 16 -13 12 3
21 12 21 20 0 9 6 13 15 9 10 -4 15 1 15 15 0 28 22 19 38 -14z m-992 4 c-3
-4 -1 -13 5 -21 6 -10 9 -11 9 -2 0 6 7 12 15 12 8 0 15 -5 15 -10 0 -6 8 -5
20 2 16 10 22 9 37 -7 24 -26 65 -124 57 -137 -4 -6 0 -14 7 -19 11 -7 11 -9
1 -9 -9 0 -10 -5 -3 -18 7 -14 6 -18 -9 -19 -13 -1 -17 3 -13 13 3 9 -1 14
-12 14 -10 0 -15 5 -12 13 7 18 -17 37 -34 26 -8 -5 -9 -9 -3 -9 6 0 11 -7 11
-15 0 -9 -6 -14 -13 -11 -20 7 -25 -22 -6 -33 9 -6 13 -11 7 -11 -19 0 -73 71
-68 91 3 10 1 19 -5 19 -13 0 -44 78 -36 91 3 5 0 16 -6 24 -10 12 -9 15 4 15
9 0 16 5 16 11 0 5 5 7 10 4 6 -4 8 -10 6 -14z m1164 -5 c0 -3 -4 -8 -10 -11
-5 -3 -10 -1 -10 4 0 6 5 11 10 11 6 0 10 -2 10 -4z m-103 -48 c-3 -7 -5 -2
-5 12 0 14 2 19 5 13 2 -7 2 -19 0 -25z m93 -7 c0 -11 -3 -12 -8 -4 -5 8 -12
3 -19 -17 -6 -17 -7 -30 -2 -30 5 0 9 -5 9 -11 0 -6 -7 -9 -15 -5 -8 3 -16 0
-16 -7 -1 -7 -2 -19 -3 -27 0 -9 -10 -14 -21 -13 -11 1 -23 -4 -27 -10 -4 -6
-10 -8 -15 -4 -4 5 -3 11 3 15 6 4 22 26 36 50 13 23 28 39 33 35 4 -5 5 0 2
10 -9 25 13 59 30 45 7 -6 13 -18 13 -27z m-1229 -26 c-3 -5 -7 -2 -9 8 -2 9
-9 17 -15 17 -7 0 -6 4 3 10 11 7 17 5 21 -8 4 -9 4 -21 0 -27z m364 23 c6 15
8 15 23 -6 17 -22 17 -22 30 -2 15 25 48 26 63 2 11 -18 13 -17 34 4 27 27 62
22 75 -10 l9 -21 6 22 c12 37 55 41 55 5 0 -13 3 -12 16 6 15 22 54 31 54 11
0 -6 9 -8 20 -4 15 5 20 2 20 -13 0 -26 -11 -34 -27 -20 -11 9 -15 7 -20 -10
-6 -23 -37 -30 -48 -11 -5 6 -11 5 -18 -6 -7 -8 -26 -17 -44 -19 -18 -3 -37
-7 -43 -11 -18 -11 -58 4 -63 23 -4 13 -5 11 -6 -5 -1 -19 -7 -23 -35 -23 -19
0 -37 4 -41 10 -3 5 -12 7 -21 3 -8 -3 -24 3 -34 12 -11 10 -20 14 -20 9 -1
-22 -30 33 -30 55 l1 26 18 -22 c17 -21 20 -21 26 -5z m305 -78 c-20 -13 -33
-13 -25 0 3 6 14 10 23 10 15 0 15 -2 2 -10z m470 -70 c0 -5 -5 -10 -11 -10
-5 0 -7 5 -4 10 3 6 8 10 11 10 2 0 4 -4 4 -10z m-955 -18 c-3 -3 -11 0 -18 7
-9 10 -8 11 6 5 10 -3 15 -9 12 -12z m905 -12 c0 -5 -5 -10 -11 -10 -5 0 -7 5
-4 10 3 6 8 10 11 10 2 0 4 -4 4 -10z m-925 -21 c11 -17 -1 -21 -15 -4 -8 9
-8 15 -2 15 6 0 14 -5 17 -11z m215 -7 c0 -4 -9 -8 -20 -9 -16 -1 -17 1 -7 12
12 13 27 11 27 -3z m94 -24 c-4 -6 -10 -5 -15 3 -14 22 -10 33 6 19 8 -7 12
-17 9 -22z m41 4 c-3 -3 -11 0 -18 7 -9 10 -8 11 6 5 10 -3 15 -9 12 -12z
m159 -243 c-21 -23 -34 -24 -34 -4 0 8 7 15 15 15 8 0 15 5 15 11 0 5 5 7 11
4 7 -5 4 -14 -7 -26z m-155 -333 c9 -11 8 -15 -5 -20 -10 -4 -22 -2 -28 4 -8
8 -5 9 9 4 18 -7 18 -6 6 9 -7 9 -9 17 -3 17 5 0 15 -6 21 -14z"/>
<path d="M1396 4254 c-9 -23 -2 -28 13 -10 7 8 8 17 3 20 -6 3 -13 -1 -16 -10z"/>
<path d="M2490 4200 c0 -5 5 -10 11 -10 5 0 7 5 4 10 -3 6 -8 10 -11 10 -2 0
-4 -4 -4 -10z"/>
<path d="M2468 4184 c-6 -9 25 -54 38 -54 4 0 0 8 -8 18 -9 9 -17 24 -20 32
-2 7 -7 10 -10 4z"/>
<path d="M2420 4131 c0 -5 5 -13 10 -16 6 -3 10 -2 10 4 0 5 -4 13 -10 16 -5
3 -10 2 -10 -4z"/>
<path d="M1327 3938 c-5 -16 3 -48 12 -48 4 0 6 14 3 30 -5 33 -8 37 -15 18z"/>
<path d="M1336 3853 c-6 -14 -5 -15 5 -6 7 7 10 15 7 18 -3 3 -9 -2 -12 -12z"/>
<path d="M1915 3709 c-4 -6 -5 -12 -2 -15 7 -7 37 7 37 17 0 13 -27 11 -35 -2z"/>
<path d="M1906 3521 c-4 -7 -5 -15 -2 -18 9 -9 19 4 14 18 -4 11 -6 11 -12 0z"/>
<path d="M2183 3453 c9 -2 25 -2 35 0 9 3 1 5 -18 5 -19 0 -27 -2 -17 -5z"/>
<path d="M2510 3390 c0 -5 5 -10 11 -10 5 0 7 5 4 10 -3 6 -8 10 -11 10 -2 0
-4 -4 -4 -10z"/>
<path d="M2100 3246 c0 -2 7 -7 16 -10 8 -3 12 -2 9 4 -6 10 -25 14 -25 6z"/>
<path d="M1738 3223 c7 -3 16 -2 19 1 4 3 -2 6 -13 5 -11 0 -14 -3 -6 -6z"/>
<path d="M2256 2795 c-3 -8 -1 -15 4 -15 6 0 10 7 10 15 0 8 -2 15 -4 15 -2 0
-6 -7 -10 -15z"/>
<path d="M2000 2620 c0 -5 5 -10 10 -10 6 0 10 5 10 10 0 6 -4 10 -10 10 -5 0
-10 -4 -10 -10z"/>
<path d="M2156 2517 c3 -10 9 -15 12 -12 3 3 0 11 -7 18 -10 9 -11 8 -5 -6z"/>
<path d="M2117 2479 c7 -7 15 -10 18 -7 3 3 -2 9 -12 12 -14 6 -15 5 -6 -5z"/>
<path d="M2040 2410 c-8 -5 -11 -12 -7 -16 4 -4 13 -2 19 4 15 15 7 24 -12 12z"/>
<path d="M1425 2860 c3 -5 8 -10 11 -10 2 0 4 5 4 10 0 6 -5 10 -11 10 -5 0
-7 -4 -4 -10z"/>
<path d="M1439 2772 c7 -5 10 -15 7 -21 -4 -6 -2 -11 4 -11 17 0 8 33 -10 37
-12 4 -13 3 -1 -5z"/>
<path d="M2910 3321 c0 -4 -13 -25 -30 -46 -16 -21 -30 -34 -30 -29 0 5 -6 -2
-13 -16 -23 -44 4 -40 39 6 31 41 54 94 40 94 -3 0 -6 -4 -6 -9z"/>
<path d="M2812 2585 c20 -41 21 -50 10 -92 -16 -58 -104 -240 -196 -403 -38
-68 -69 -132 -69 -142 1 -10 -2 -16 -7 -13 -4 3 -20 -16 -35 -41 -22 -38 -25
-48 -14 -56 11 -8 11 -9 -2 -5 -12 4 -28 -20 -65 -96 -27 -56 -71 -142 -98
-192 -26 -49 -77 -151 -111 -225 -35 -74 -82 -175 -105 -225 -133 -281 -171
-369 -280 -630 -52 -123 -170 -444 -170 -461 0 -2 652 -4 1449 -4 l1448 0 6
38 c25 160 14 291 -35 399 -19 43 -22 68 -24 258 -2 240 -22 416 -60 537 -33
106 -104 245 -146 285 -18 18 -71 69 -118 115 -113 110 -220 190 -333 247 -51
26 -103 54 -117 63 -14 9 -56 26 -93 38 -46 15 -116 54 -221 124 -96 64 -181
113 -230 132 -72 27 -84 36 -149 109 -39 44 -95 117 -124 162 -53 82 -93 123
-119 123 -10 0 -8 -11 8 -45z"/>
<path d="M1363 2165 c-140 -72 -209 -129 -247 -205 -38 -74 -83 -218 -107
-335 -12 -60 -32 -148 -46 -195 -13 -47 -46 -175 -74 -285 -27 -110 -70 -272
-94 -360 -50 -178 -128 -527 -144 -650 -6 -44 -13 -92 -16 -107 l-4 -28 74 0
75 0 0 59 c0 138 49 369 124 587 57 167 97 263 207 502 49 105 89 196 89 200
0 17 60 101 80 112 18 10 22 9 27 -8 5 -21 49 -36 59 -21 3 5 0 9 -5 9 -21 0
-72 54 -114 119 -39 62 -42 71 -43 142 -1 42 -4 82 -8 88 -9 15 -15 6 161 239
84 111 149 202 144 202 -5 0 -67 -29 -138 -65z"/>
<path d="M1988 2033 c7 -3 16 -2 19 1 4 3 -2 6 -13 5 -11 0 -14 -3 -6 -6z"/>
<path d="M1925 2020 c-3 -5 -2 -10 4 -10 5 0 13 5 16 10 3 6 2 10 -4 10 -5 0
-13 -4 -16 -10z"/>
<path d="M2059 1644 l-24 -27 33 17 c17 9 32 21 32 26 0 17 -16 11 -41 -16z"/>
</g>
</svg>
